<svg width="1803" height="343" viewBox="0 0 1803 343" fill="none" xmlns="http://www.w3.org/2000/svg">
<g clip-path="url(#clip0_1322_3801)">
<rect width="1803" height="343" fill="white"/>
<path d="M-3.8999 0H1803.18V342.593H-3.8999V0Z" fill="#CCFFE2"/>
<path fill-rule="evenodd" clip-rule="evenodd" d="M1943.55 237.166V343H475.379C535.532 293.689 599.915 248.214 668.419 207.174C1082.63 -40.9783 1540.57 29.3673 1943.55 237.166Z" fill="#FFECEA"/>
<path fill-rule="evenodd" clip-rule="evenodd" d="M1373.87 169.08C1373.93 113.585 1408.92 58.5251 1467.21 46.2885C1518.96 35.4248 1554.8 83.7469 1584.16 124.932C1611.76 163.654 1640.07 210.578 1611.16 248.223C1579.64 289.281 1518.29 294.69 1466.96 277.571C1415.17 260.296 1373.82 220.063 1373.87 169.08Z" fill="#0018A4"/>
<path fill-rule="evenodd" clip-rule="evenodd" d="M135.668 64.0357C166.613 63.0846 197.932 81.7112 205.784 114.146C212.755 142.942 186.443 163.876 163.996 181.054C142.892 197.204 117.226 213.893 95.7253 198.369C72.2753 181.438 68.1762 147.166 76.8156 118.11C85.5343 88.7878 107.239 64.9096 135.668 64.0357Z" fill="white"/>
<rect x="-3.8999" width="1807.08" height="100.393" fill="#0018A4"/>
<path d="M14.7705 59.5684H14.0985L8.05052 44.0704V59.5684H7.37852V36.5524H2.33852V59.5684H1.66652V30.1684H11.0325C16.4085 30.1684 20.6925 34.4524 20.6925 39.8284C20.6925 44.1124 18.5505 46.6324 16.0725 48.1864L20.4825 59.5684H19.8105L15.5265 48.5224C14.3085 49.2364 12.5865 49.8664 11.1585 50.2864L14.7705 59.5684ZM13.8465 42.4744L15.8205 47.5564C18.0885 46.1284 20.0205 43.7764 20.0205 39.8284C20.0205 34.7884 16.0725 30.8404 11.0325 30.8404H8.05052V35.8804H11.0325C13.2165 35.8804 14.9805 37.6444 14.9805 39.8284C14.9805 40.8364 14.6025 41.7184 13.8465 42.4744ZM8.05052 36.5524V44.0704L9.64652 43.7344C12.9225 43.0204 14.3085 41.6344 14.3085 39.8284C14.3085 37.9804 12.8805 36.5524 11.0325 36.5524H8.05052ZM2.33852 30.8404V35.8804H7.37852V30.8404H2.33852ZM15.2745 47.8924L13.3425 42.9364C12.0825 43.9024 10.6125 44.2384 8.97452 44.5744L10.9065 49.6144C12.1665 49.2784 14.2245 48.5224 15.2745 47.8924ZM22.214 48.4384C22.214 42.0124 27.422 36.8044 33.848 36.8044C38.972 36.8044 43.298 40.0804 44.852 44.7004L31.202 52.9744C32 53.4364 32.882 53.6884 33.848 53.6884C35.948 53.6884 37.754 52.4284 38.594 50.6644L39.224 50.9584C38.3 52.9744 36.242 54.3604 33.848 54.3604C32.63 54.3604 31.496 53.9824 30.572 53.3524L26.036 56.1244C28.01 58.1404 30.782 59.4004 33.848 59.4004C38.216 59.4004 42.038 56.7964 43.802 53.0584L44.39 53.3524C42.542 57.3424 38.51 60.0724 33.848 60.0724C27.422 60.0724 22.214 54.8644 22.214 48.4384ZM22.886 48.4384C22.886 49.6564 23.096 50.7904 23.432 51.8824L27.968 49.1104C27.926 48.9004 27.926 48.6484 27.926 48.4384C27.926 45.1624 30.572 42.5164 33.848 42.5164C35.066 42.5164 36.242 42.8944 37.166 43.5244L41.66 40.7944C39.686 38.7364 36.914 37.4764 33.848 37.4764C27.8 37.4764 22.886 42.3904 22.886 48.4384ZM23.684 52.5124C24.146 53.6464 24.776 54.6964 25.574 55.6204L29.984 52.9324C29.06 52.1344 28.388 51.0424 28.094 49.8244L23.684 52.5124ZM28.598 48.4384V48.7324L36.536 43.9024C35.738 43.4404 34.814 43.1884 33.848 43.1884C30.95 43.1884 28.598 45.5404 28.598 48.4384ZM28.682 49.4884C28.934 50.7064 29.648 51.7984 30.614 52.5544L39.014 47.4304C38.762 46.2124 38.09 45.1204 37.124 44.3224L28.682 49.4884ZM37.754 43.9864C38.678 44.7844 39.35 45.8344 39.602 47.0944L44.054 44.3644C43.592 43.2304 42.92 42.2224 42.164 41.2984L37.754 43.9864ZM45.634 48.4384C45.634 42.0124 50.842 36.8044 57.268 36.8044C59.158 36.8044 60.922 37.2664 62.518 38.0644V28.0684H63.19V38.4424C65.542 39.7444 67.348 42.0964 68.23 44.5324V28.0684H68.902V59.5684H68.23V52.3024C67.39 54.6964 65.542 57.1744 63.19 58.4764V59.5684H62.518V58.8124C60.922 59.6104 59.158 60.0724 57.268 60.0724C50.842 60.0724 45.634 54.8644 45.634 48.4384ZM46.306 48.4384C46.306 54.4864 51.22 59.4004 57.268 59.4004C59.158 59.4004 60.964 58.9384 62.518 58.0984V51.2104C61.51 53.0584 59.536 54.3604 57.268 54.3604C53.992 54.3604 51.346 51.7144 51.346 48.4384C51.346 45.1624 53.992 42.5164 57.268 42.5164C59.536 42.5164 61.51 43.8184 62.518 45.7084V38.8204C60.964 37.9804 59.158 37.4764 57.268 37.4764C51.22 37.4764 46.306 42.3904 46.306 48.4384ZM52.018 48.4384C52.018 51.3364 54.37 53.6884 57.268 53.6884C60.208 53.6884 62.518 51.3364 62.518 48.4384C62.518 45.5404 60.208 43.1884 57.268 43.1884C54.37 43.1884 52.018 45.5404 52.018 48.4384ZM63.19 39.1984V57.6784C66.004 55.9564 68.23 52.4704 68.23 48.4384C68.23 44.4064 66.004 40.9204 63.19 39.1984ZM93.177 37.3084V59.5684H92.505V53.2264C91.581 55.6204 89.775 57.5944 87.465 58.7284V59.5684H86.793V59.0644C85.617 59.5264 84.357 59.7784 83.013 59.7784C77.427 59.7784 72.849 55.2004 72.849 49.6144V37.3084H73.521V49.6144C73.521 54.8224 77.805 59.1064 83.013 59.1064C84.357 59.1064 85.617 58.8124 86.793 58.3084V51.9664C85.995 53.2264 84.609 54.0664 83.013 54.0664C80.577 54.0664 78.561 52.0504 78.561 49.6144V37.3084H79.233V49.6144C79.233 51.6724 80.955 53.3944 83.013 53.3944C85.071 53.3944 86.793 51.6724 86.793 49.6144V37.3084H87.465V57.9724C90.447 56.3764 92.505 53.2264 92.505 49.6144V37.3084H93.177ZM102.632 37.3084L106.286 42.8524L109.982 37.3084H110.822L106.706 43.4824L109.562 47.8084L116.534 37.3084H117.374L109.982 48.4384L117.374 59.5684H116.534L109.562 49.0684L106.706 53.3944L110.822 59.5684H109.982L106.328 54.0244L102.632 59.5684H101.792L105.908 53.3944L103.01 49.0684L96.0802 59.5684H95.2402L102.59 48.4384L95.2402 37.3084H96.0802L103.01 47.8084L105.866 43.4824L101.792 37.3084H102.632ZM106.286 52.7644L109.142 48.4384L106.286 44.1124L103.43 48.4384L106.286 52.7644ZM142.339 53.6884C147.169 53.6884 151.159 49.6984 151.159 44.8684C151.159 40.0384 147.169 36.0484 142.339 36.0484C137.509 36.0484 133.519 40.0384 133.519 44.8684C133.519 49.6984 137.509 53.6884 142.339 53.6884ZM150.613 49.4464L154.099 53.3944C155.821 51.0004 156.871 48.0604 156.871 44.8684C156.871 36.8464 150.361 30.3364 142.339 30.3364C134.317 30.3364 127.807 36.8464 127.807 44.8684C127.807 52.8904 134.317 59.4004 142.339 59.4004C144.859 59.4004 147.253 58.7704 149.353 57.5944L145.909 53.6464C144.817 54.1084 143.599 54.3604 142.339 54.3604C137.173 54.3604 132.847 50.0344 132.847 44.8684C132.847 39.7024 137.173 35.3764 142.339 35.3764C147.505 35.3764 151.831 39.7024 151.831 44.8684C151.831 46.5484 151.369 48.1024 150.613 49.4464ZM146.539 53.3524L149.899 57.2584C151.201 56.5444 152.671 55.2424 153.679 53.9404L150.235 50.0344C149.395 51.3784 148.135 52.5544 146.539 53.3524ZM156.115 56.7124L154.141 54.4444C153.007 55.8724 151.537 57.0904 150.361 57.7624L152.293 60.0304L151.789 60.4504L149.773 58.0984C147.589 59.3584 145.027 60.0724 142.339 60.0724C133.981 60.0724 127.135 53.2264 127.135 44.8684C127.135 36.5104 133.981 29.6644 142.339 29.6644C150.697 29.6644 157.543 36.5104 157.543 44.8684C157.543 48.2704 156.409 51.3784 154.519 53.8984L156.619 56.2924L156.115 56.7124ZM180.786 37.3084V59.5684H180.114V53.2264C179.19 55.6204 177.384 57.5944 175.074 58.7284V59.5684H174.402V59.0644C173.226 59.5264 171.966 59.7784 170.622 59.7784C165.036 59.7784 160.458 55.2004 160.458 49.6144V37.3084H161.13V49.6144C161.13 54.8224 165.414 59.1064 170.622 59.1064C171.966 59.1064 173.226 58.8124 174.402 58.3084V51.9664C173.604 53.2264 172.218 54.0664 170.622 54.0664C168.186 54.0664 166.17 52.0504 166.17 49.6144V37.3084H166.842V49.6144C166.842 51.6724 168.564 53.3944 170.622 53.3944C172.68 53.3944 174.402 51.6724 174.402 49.6144V37.3084H175.074V57.9724C178.056 56.3764 180.114 53.2264 180.114 49.6144V37.3084H180.786ZM185.076 59.5684V37.3084H185.748V59.5684H185.076ZM191.46 37.3084V59.5684H190.788V37.3084H191.46ZM190.788 35.1244V28.0684H191.46V35.1244H190.788ZM185.748 28.0684V35.1244H185.076V28.0684H185.748ZM201.326 58.8964H212.162V59.5684H193.85L202.208 43.6924H195.068V43.0204H202.544L205.232 37.9804H195.068V37.3084H212.708L204.35 53.1844H212.162V53.8564H204.014L201.326 58.8964ZM203.594 53.1844L208.592 43.6924H202.964L197.966 53.1844H203.594ZM203.258 53.8564H197.63L194.942 58.8964H200.57L203.258 53.8564ZM208.928 43.0204L211.616 37.9804H205.988L203.3 43.0204H208.928ZM237.855 59.5684H237.183L231.135 44.0704V59.5684H230.463V36.5524H225.423V59.5684H224.751V30.1684H234.117C239.493 30.1684 243.777 34.4524 243.777 39.8284C243.777 44.1124 241.635 46.6324 239.157 48.1864L243.567 59.5684H242.895L238.611 48.5224C237.393 49.2364 235.671 49.8664 234.243 50.2864L237.855 59.5684ZM236.931 42.4744L238.905 47.5564C241.173 46.1284 243.105 43.7764 243.105 39.8284C243.105 34.7884 239.157 30.8404 234.117 30.8404H231.135V35.8804H234.117C236.301 35.8804 238.065 37.6444 238.065 39.8284C238.065 40.8364 237.687 41.7184 236.931 42.4744ZM231.135 36.5524V44.0704L232.731 43.7344C236.007 43.0204 237.393 41.6344 237.393 39.8284C237.393 37.9804 235.965 36.5524 234.117 36.5524H231.135ZM225.423 30.8404V35.8804H230.463V30.8404H225.423ZM238.359 47.8924L236.427 42.9364C235.167 43.9024 233.697 44.2384 232.059 44.5744L233.991 49.6144C235.251 49.2784 237.309 48.5224 238.359 47.8924ZM245.298 48.4384C245.298 42.0124 250.506 36.8044 256.932 36.8044C262.056 36.8044 266.382 40.0804 267.936 44.7004L254.286 52.9744C255.084 53.4364 255.966 53.6884 256.932 53.6884C259.032 53.6884 260.838 52.4284 261.678 50.6644L262.308 50.9584C261.384 52.9744 259.326 54.3604 256.932 54.3604C255.714 54.3604 254.58 53.9824 253.656 53.3524L249.12 56.1244C251.094 58.1404 253.866 59.4004 256.932 59.4004C261.3 59.4004 265.122 56.7964 266.886 53.0584L267.474 53.3524C265.626 57.3424 261.594 60.0724 256.932 60.0724C250.506 60.0724 245.298 54.8644 245.298 48.4384ZM245.97 48.4384C245.97 49.6564 246.18 50.7904 246.516 51.8824L251.052 49.1104C251.01 48.9004 251.01 48.6484 251.01 48.4384C251.01 45.1624 253.656 42.5164 256.932 42.5164C258.15 42.5164 259.326 42.8944 260.25 43.5244L264.744 40.7944C262.77 38.7364 259.998 37.4764 256.932 37.4764C250.884 37.4764 245.97 42.3904 245.97 48.4384ZM246.768 52.5124C247.23 53.6464 247.86 54.6964 248.658 55.6204L253.068 52.9324C252.144 52.1344 251.472 51.0424 251.178 49.8244L246.768 52.5124ZM251.682 48.4384V48.7324L259.62 43.9024C258.822 43.4404 257.898 43.1884 256.932 43.1884C254.034 43.1884 251.682 45.5404 251.682 48.4384ZM251.766 49.4884C252.018 50.7064 252.732 51.7984 253.698 52.5544L262.098 47.4304C261.846 46.2124 261.174 45.1204 260.208 44.3224L251.766 49.4884ZM260.838 43.9864C261.762 44.7844 262.434 45.8344 262.686 47.0944L267.138 44.3644C266.676 43.2304 266.004 42.2224 265.248 41.2984L260.838 43.9864ZM268.718 48.4384C268.718 42.0124 273.926 36.8044 280.352 36.8044C282.242 36.8044 284.006 37.2664 285.602 38.0644V28.0684H286.274V38.4424C288.626 39.7444 290.432 42.0964 291.314 44.5324V28.0684H291.986V59.5684H291.314V52.3024C290.474 54.6964 288.626 57.1744 286.274 58.4764V59.5684H285.602V58.8124C284.006 59.6104 282.242 60.0724 280.352 60.0724C273.926 60.0724 268.718 54.8644 268.718 48.4384ZM269.39 48.4384C269.39 54.4864 274.304 59.4004 280.352 59.4004C282.242 59.4004 284.048 58.9384 285.602 58.0984V51.2104C284.594 53.0584 282.62 54.3604 280.352 54.3604C277.076 54.3604 274.43 51.7144 274.43 48.4384C274.43 45.1624 277.076 42.5164 280.352 42.5164C282.62 42.5164 284.594 43.8184 285.602 45.7084V38.8204C284.048 37.9804 282.242 37.4764 280.352 37.4764C274.304 37.4764 269.39 42.3904 269.39 48.4384ZM275.102 48.4384C275.102 51.3364 277.454 53.6884 280.352 53.6884C283.292 53.6884 285.602 51.3364 285.602 48.4384C285.602 45.5404 283.292 43.1884 280.352 43.1884C277.454 43.1884 275.102 45.5404 275.102 48.4384ZM286.274 39.1984V57.6784C289.088 55.9564 291.314 52.4704 291.314 48.4384C291.314 44.4064 289.088 40.9204 286.274 39.1984ZM316.261 37.3084V59.5684H315.589V53.2264C314.665 55.6204 312.859 57.5944 310.549 58.7284V59.5684H309.877V59.0644C308.701 59.5264 307.441 59.7784 306.097 59.7784C300.511 59.7784 295.933 55.2004 295.933 49.6144V37.3084H296.605V49.6144C296.605 54.8224 300.889 59.1064 306.097 59.1064C307.441 59.1064 308.701 58.8124 309.877 58.3084V51.9664C309.079 53.2264 307.693 54.0664 306.097 54.0664C303.661 54.0664 301.645 52.0504 301.645 49.6144V37.3084H302.317V49.6144C302.317 51.6724 304.039 53.3944 306.097 53.3944C308.155 53.3944 309.877 51.6724 309.877 49.6144V37.3084H310.549V57.9724C313.531 56.3764 315.589 53.2264 315.589 49.6144V37.3084H316.261ZM325.716 37.3084L329.37 42.8524L333.066 37.3084H333.906L329.79 43.4824L332.646 47.8084L339.618 37.3084H340.458L333.066 48.4384L340.458 59.5684H339.618L332.646 49.0684L329.79 53.3944L333.906 59.5684H333.066L329.412 54.0244L325.716 59.5684H324.876L328.992 53.3944L326.094 49.0684L319.164 59.5684H318.324L325.674 48.4384L318.324 37.3084H319.164L326.094 47.8084L328.95 43.4824L324.876 37.3084H325.716ZM329.37 52.7644L332.226 48.4384L329.37 44.1124L326.514 48.4384L329.37 52.7644ZM365.423 53.6884C370.253 53.6884 374.243 49.6984 374.243 44.8684C374.243 40.0384 370.253 36.0484 365.423 36.0484C360.593 36.0484 356.603 40.0384 356.603 44.8684C356.603 49.6984 360.593 53.6884 365.423 53.6884ZM373.697 49.4464L377.183 53.3944C378.905 51.0004 379.955 48.0604 379.955 44.8684C379.955 36.8464 373.445 30.3364 365.423 30.3364C357.401 30.3364 350.891 36.8464 350.891 44.8684C350.891 52.8904 357.401 59.4004 365.423 59.4004C367.943 59.4004 370.337 58.7704 372.437 57.5944L368.993 53.6464C367.901 54.1084 366.683 54.3604 365.423 54.3604C360.257 54.3604 355.931 50.0344 355.931 44.8684C355.931 39.7024 360.257 35.3764 365.423 35.3764C370.589 35.3764 374.915 39.7024 374.915 44.8684C374.915 46.5484 374.453 48.1024 373.697 49.4464ZM369.623 53.3524L372.983 57.2584C374.285 56.5444 375.755 55.2424 376.763 53.9404L373.319 50.0344C372.479 51.3784 371.219 52.5544 369.623 53.3524ZM379.199 56.7124L377.225 54.4444C376.091 55.8724 374.621 57.0904 373.445 57.7624L375.377 60.0304L374.873 60.4504L372.857 58.0984C370.673 59.3584 368.111 60.0724 365.423 60.0724C357.065 60.0724 350.219 53.2264 350.219 44.8684C350.219 36.5104 357.065 29.6644 365.423 29.6644C373.781 29.6644 380.627 36.5104 380.627 44.8684C380.627 48.2704 379.493 51.3784 377.603 53.8984L379.703 56.2924L379.199 56.7124ZM403.87 37.3084V59.5684H403.198V53.2264C402.274 55.6204 400.468 57.5944 398.158 58.7284V59.5684H397.486V59.0644C396.31 59.5264 395.05 59.7784 393.706 59.7784C388.12 59.7784 383.542 55.2004 383.542 49.6144V37.3084H384.214V49.6144C384.214 54.8224 388.498 59.1064 393.706 59.1064C395.05 59.1064 396.31 58.8124 397.486 58.3084V51.9664C396.688 53.2264 395.302 54.0664 393.706 54.0664C391.27 54.0664 389.254 52.0504 389.254 49.6144V37.3084H389.926V49.6144C389.926 51.6724 391.648 53.3944 393.706 53.3944C395.764 53.3944 397.486 51.6724 397.486 49.6144V37.3084H398.158V57.9724C401.14 56.3764 403.198 53.2264 403.198 49.6144V37.3084H403.87ZM408.16 59.5684V37.3084H408.832V59.5684H408.16ZM414.544 37.3084V59.5684H413.872V37.3084H414.544ZM413.872 35.1244V28.0684H414.544V35.1244H413.872ZM408.832 28.0684V35.1244H408.16V28.0684H408.832ZM424.41 58.8964H435.246V59.5684H416.934L425.292 43.6924H418.152V43.0204H425.628L428.316 37.9804H418.152V37.3084H435.792L427.434 53.1844H435.246V53.8564H427.098L424.41 58.8964ZM426.678 53.1844L431.676 43.6924H426.048L421.05 53.1844H426.678ZM426.342 53.8564H420.714L418.026 58.8964H423.654L426.342 53.8564ZM432.012 43.0204L434.7 37.9804H429.072L426.384 43.0204H432.012ZM460.938 59.5684H460.266L454.218 44.0704V59.5684H453.546V36.5524H448.506V59.5684H447.834V30.1684H457.2C462.576 30.1684 466.86 34.4524 466.86 39.8284C466.86 44.1124 464.718 46.6324 462.24 48.1864L466.65 59.5684H465.978L461.694 48.5224C460.476 49.2364 458.754 49.8664 457.326 50.2864L460.938 59.5684ZM460.014 42.4744L461.988 47.5564C464.256 46.1284 466.188 43.7764 466.188 39.8284C466.188 34.7884 462.24 30.8404 457.2 30.8404H454.218V35.8804H457.2C459.384 35.8804 461.148 37.6444 461.148 39.8284C461.148 40.8364 460.77 41.7184 460.014 42.4744ZM454.218 36.5524V44.0704L455.814 43.7344C459.09 43.0204 460.476 41.6344 460.476 39.8284C460.476 37.9804 459.048 36.5524 457.2 36.5524H454.218ZM448.506 30.8404V35.8804H453.546V30.8404H448.506ZM461.442 47.8924L459.51 42.9364C458.25 43.9024 456.78 44.2384 455.142 44.5744L457.074 49.6144C458.334 49.2784 460.392 48.5224 461.442 47.8924ZM468.382 48.4384C468.382 42.0124 473.59 36.8044 480.016 36.8044C485.14 36.8044 489.466 40.0804 491.02 44.7004L477.37 52.9744C478.168 53.4364 479.05 53.6884 480.016 53.6884C482.116 53.6884 483.922 52.4284 484.762 50.6644L485.392 50.9584C484.468 52.9744 482.41 54.3604 480.016 54.3604C478.798 54.3604 477.664 53.9824 476.74 53.3524L472.204 56.1244C474.178 58.1404 476.95 59.4004 480.016 59.4004C484.384 59.4004 488.206 56.7964 489.97 53.0584L490.558 53.3524C488.71 57.3424 484.678 60.0724 480.016 60.0724C473.59 60.0724 468.382 54.8644 468.382 48.4384ZM469.054 48.4384C469.054 49.6564 469.264 50.7904 469.6 51.8824L474.136 49.1104C474.094 48.9004 474.094 48.6484 474.094 48.4384C474.094 45.1624 476.74 42.5164 480.016 42.5164C481.234 42.5164 482.41 42.8944 483.334 43.5244L487.828 40.7944C485.854 38.7364 483.082 37.4764 480.016 37.4764C473.968 37.4764 469.054 42.3904 469.054 48.4384ZM469.852 52.5124C470.314 53.6464 470.944 54.6964 471.742 55.6204L476.152 52.9324C475.228 52.1344 474.556 51.0424 474.262 49.8244L469.852 52.5124ZM474.766 48.4384V48.7324L482.704 43.9024C481.906 43.4404 480.982 43.1884 480.016 43.1884C477.118 43.1884 474.766 45.5404 474.766 48.4384ZM474.85 49.4884C475.102 50.7064 475.816 51.7984 476.782 52.5544L485.182 47.4304C484.93 46.2124 484.258 45.1204 483.292 44.3224L474.85 49.4884ZM483.922 43.9864C484.846 44.7844 485.518 45.8344 485.77 47.0944L490.222 44.3644C489.76 43.2304 489.088 42.2224 488.332 41.2984L483.922 43.9864ZM491.802 48.4384C491.802 42.0124 497.01 36.8044 503.436 36.8044C505.326 36.8044 507.09 37.2664 508.686 38.0644V28.0684H509.358V38.4424C511.71 39.7444 513.516 42.0964 514.398 44.5324V28.0684H515.07V59.5684H514.398V52.3024C513.558 54.6964 511.71 57.1744 509.358 58.4764V59.5684H508.686V58.8124C507.09 59.6104 505.326 60.0724 503.436 60.0724C497.01 60.0724 491.802 54.8644 491.802 48.4384ZM492.474 48.4384C492.474 54.4864 497.388 59.4004 503.436 59.4004C505.326 59.4004 507.132 58.9384 508.686 58.0984V51.2104C507.678 53.0584 505.704 54.3604 503.436 54.3604C500.16 54.3604 497.514 51.7144 497.514 48.4384C497.514 45.1624 500.16 42.5164 503.436 42.5164C505.704 42.5164 507.678 43.8184 508.686 45.7084V38.8204C507.132 37.9804 505.326 37.4764 503.436 37.4764C497.388 37.4764 492.474 42.3904 492.474 48.4384ZM498.186 48.4384C498.186 51.3364 500.538 53.6884 503.436 53.6884C506.376 53.6884 508.686 51.3364 508.686 48.4384C508.686 45.5404 506.376 43.1884 503.436 43.1884C500.538 43.1884 498.186 45.5404 498.186 48.4384ZM509.358 39.1984V57.6784C512.172 55.9564 514.398 52.4704 514.398 48.4384C514.398 44.4064 512.172 40.9204 509.358 39.1984ZM539.345 37.3084V59.5684H538.673V53.2264C537.749 55.6204 535.943 57.5944 533.633 58.7284V59.5684H532.961V59.0644C531.785 59.5264 530.525 59.7784 529.181 59.7784C523.595 59.7784 519.017 55.2004 519.017 49.6144V37.3084H519.689V49.6144C519.689 54.8224 523.973 59.1064 529.181 59.1064C530.525 59.1064 531.785 58.8124 532.961 58.3084V51.9664C532.163 53.2264 530.777 54.0664 529.181 54.0664C526.745 54.0664 524.729 52.0504 524.729 49.6144V37.3084H525.401V49.6144C525.401 51.6724 527.123 53.3944 529.181 53.3944C531.239 53.3944 532.961 51.6724 532.961 49.6144V37.3084H533.633V57.9724C536.615 56.3764 538.673 53.2264 538.673 49.6144V37.3084H539.345ZM548.8 37.3084L552.454 42.8524L556.15 37.3084H556.99L552.874 43.4824L555.73 47.8084L562.702 37.3084H563.542L556.15 48.4384L563.542 59.5684H562.702L555.73 49.0684L552.874 53.3944L556.99 59.5684H556.15L552.496 54.0244L548.8 59.5684H547.96L552.076 53.3944L549.178 49.0684L542.248 59.5684H541.408L548.758 48.4384L541.408 37.3084H542.248L549.178 47.8084L552.034 43.4824L547.96 37.3084H548.8ZM552.454 52.7644L555.31 48.4384L552.454 44.1124L549.598 48.4384L552.454 52.7644ZM588.507 53.6884C593.337 53.6884 597.327 49.6984 597.327 44.8684C597.327 40.0384 593.337 36.0484 588.507 36.0484C583.677 36.0484 579.687 40.0384 579.687 44.8684C579.687 49.6984 583.677 53.6884 588.507 53.6884ZM596.781 49.4464L600.267 53.3944C601.989 51.0004 603.039 48.0604 603.039 44.8684C603.039 36.8464 596.529 30.3364 588.507 30.3364C580.485 30.3364 573.975 36.8464 573.975 44.8684C573.975 52.8904 580.485 59.4004 588.507 59.4004C591.027 59.4004 593.421 58.7704 595.521 57.5944L592.077 53.6464C590.985 54.1084 589.767 54.3604 588.507 54.3604C583.341 54.3604 579.015 50.0344 579.015 44.8684C579.015 39.7024 583.341 35.3764 588.507 35.3764C593.673 35.3764 597.999 39.7024 597.999 44.8684C597.999 46.5484 597.537 48.1024 596.781 49.4464ZM592.707 53.3524L596.067 57.2584C597.369 56.5444 598.839 55.2424 599.847 53.9404L596.403 50.0344C595.563 51.3784 594.303 52.5544 592.707 53.3524ZM602.283 56.7124L600.309 54.4444C599.175 55.8724 597.705 57.0904 596.529 57.7624L598.461 60.0304L597.957 60.4504L595.941 58.0984C593.757 59.3584 591.195 60.0724 588.507 60.0724C580.149 60.0724 573.303 53.2264 573.303 44.8684C573.303 36.5104 580.149 29.6644 588.507 29.6644C596.865 29.6644 603.711 36.5104 603.711 44.8684C603.711 48.2704 602.577 51.3784 600.687 53.8984L602.787 56.2924L602.283 56.7124ZM626.954 37.3084V59.5684H626.282V53.2264C625.358 55.6204 623.552 57.5944 621.242 58.7284V59.5684H620.57V59.0644C619.394 59.5264 618.134 59.7784 616.79 59.7784C611.204 59.7784 606.626 55.2004 606.626 49.6144V37.3084H607.298V49.6144C607.298 54.8224 611.582 59.1064 616.79 59.1064C618.134 59.1064 619.394 58.8124 620.57 58.3084V51.9664C619.772 53.2264 618.386 54.0664 616.79 54.0664C614.354 54.0664 612.338 52.0504 612.338 49.6144V37.3084H613.01V49.6144C613.01 51.6724 614.732 53.3944 616.79 53.3944C618.848 53.3944 620.57 51.6724 620.57 49.6144V37.3084H621.242V57.9724C624.224 56.3764 626.282 53.2264 626.282 49.6144V37.3084H626.954ZM631.244 59.5684V37.3084H631.916V59.5684H631.244ZM637.628 37.3084V59.5684H636.956V37.3084H637.628ZM636.956 35.1244V28.0684H637.628V35.1244H636.956ZM631.916 28.0684V35.1244H631.244V28.0684H631.916ZM647.494 58.8964H658.33V59.5684H640.018L648.376 43.6924H641.236V43.0204H648.712L651.4 37.9804H641.236V37.3084H658.876L650.518 53.1844H658.33V53.8564H650.182L647.494 58.8964ZM649.762 53.1844L654.76 43.6924H649.132L644.134 53.1844H649.762ZM649.426 53.8564H643.798L641.11 58.8964H646.738L649.426 53.8564ZM655.096 43.0204L657.784 37.9804H652.156L649.468 43.0204H655.096ZM684.022 59.5684H683.35L677.302 44.0704V59.5684H676.63V36.5524H671.59V59.5684H670.918V30.1684H680.284C685.66 30.1684 689.944 34.4524 689.944 39.8284C689.944 44.1124 687.802 46.6324 685.324 48.1864L689.734 59.5684H689.062L684.778 48.5224C683.56 49.2364 681.838 49.8664 680.41 50.2864L684.022 59.5684ZM683.098 42.4744L685.072 47.5564C687.34 46.1284 689.272 43.7764 689.272 39.8284C689.272 34.7884 685.324 30.8404 680.284 30.8404H677.302V35.8804H680.284C682.468 35.8804 684.232 37.6444 684.232 39.8284C684.232 40.8364 683.854 41.7184 683.098 42.4744ZM677.302 36.5524V44.0704L678.898 43.7344C682.174 43.0204 683.56 41.6344 683.56 39.8284C683.56 37.9804 682.132 36.5524 680.284 36.5524H677.302ZM671.59 30.8404V35.8804H676.63V30.8404H671.59ZM684.526 47.8924L682.594 42.9364C681.334 43.9024 679.864 44.2384 678.226 44.5744L680.158 49.6144C681.418 49.2784 683.476 48.5224 684.526 47.8924ZM691.466 48.4384C691.466 42.0124 696.674 36.8044 703.1 36.8044C708.224 36.8044 712.55 40.0804 714.104 44.7004L700.454 52.9744C701.252 53.4364 702.134 53.6884 703.1 53.6884C705.2 53.6884 707.006 52.4284 707.846 50.6644L708.476 50.9584C707.552 52.9744 705.494 54.3604 703.1 54.3604C701.882 54.3604 700.748 53.9824 699.824 53.3524L695.288 56.1244C697.262 58.1404 700.034 59.4004 703.1 59.4004C707.468 59.4004 711.29 56.7964 713.054 53.0584L713.642 53.3524C711.794 57.3424 707.762 60.0724 703.1 60.0724C696.674 60.0724 691.466 54.8644 691.466 48.4384ZM692.138 48.4384C692.138 49.6564 692.348 50.7904 692.684 51.8824L697.22 49.1104C697.178 48.9004 697.178 48.6484 697.178 48.4384C697.178 45.1624 699.824 42.5164 703.1 42.5164C704.318 42.5164 705.494 42.8944 706.418 43.5244L710.912 40.7944C708.938 38.7364 706.166 37.4764 703.1 37.4764C697.052 37.4764 692.138 42.3904 692.138 48.4384ZM692.936 52.5124C693.398 53.6464 694.028 54.6964 694.826 55.6204L699.236 52.9324C698.312 52.1344 697.64 51.0424 697.346 49.8244L692.936 52.5124ZM697.85 48.4384V48.7324L705.788 43.9024C704.99 43.4404 704.066 43.1884 703.1 43.1884C700.202 43.1884 697.85 45.5404 697.85 48.4384ZM697.934 49.4884C698.186 50.7064 698.9 51.7984 699.866 52.5544L708.266 47.4304C708.014 46.2124 707.342 45.1204 706.376 44.3224L697.934 49.4884ZM707.006 43.9864C707.93 44.7844 708.602 45.8344 708.854 47.0944L713.306 44.3644C712.844 43.2304 712.172 42.2224 711.416 41.2984L707.006 43.9864ZM714.886 48.4384C714.886 42.0124 720.094 36.8044 726.52 36.8044C728.41 36.8044 730.174 37.2664 731.77 38.0644V28.0684H732.442V38.4424C734.794 39.7444 736.6 42.0964 737.482 44.5324V28.0684H738.154V59.5684H737.482V52.3024C736.642 54.6964 734.794 57.1744 732.442 58.4764V59.5684H731.77V58.8124C730.174 59.6104 728.41 60.0724 726.52 60.0724C720.094 60.0724 714.886 54.8644 714.886 48.4384ZM715.558 48.4384C715.558 54.4864 720.472 59.4004 726.52 59.4004C728.41 59.4004 730.216 58.9384 731.77 58.0984V51.2104C730.762 53.0584 728.788 54.3604 726.52 54.3604C723.244 54.3604 720.598 51.7144 720.598 48.4384C720.598 45.1624 723.244 42.5164 726.52 42.5164C728.788 42.5164 730.762 43.8184 731.77 45.7084V38.8204C730.216 37.9804 728.41 37.4764 726.52 37.4764C720.472 37.4764 715.558 42.3904 715.558 48.4384ZM721.27 48.4384C721.27 51.3364 723.622 53.6884 726.52 53.6884C729.46 53.6884 731.77 51.3364 731.77 48.4384C731.77 45.5404 729.46 43.1884 726.52 43.1884C723.622 43.1884 721.27 45.5404 721.27 48.4384ZM732.442 39.1984V57.6784C735.256 55.9564 737.482 52.4704 737.482 48.4384C737.482 44.4064 735.256 40.9204 732.442 39.1984ZM762.429 37.3084V59.5684H761.757V53.2264C760.833 55.6204 759.027 57.5944 756.717 58.7284V59.5684H756.045V59.0644C754.869 59.5264 753.609 59.7784 752.265 59.7784C746.679 59.7784 742.101 55.2004 742.101 49.6144V37.3084H742.773V49.6144C742.773 54.8224 747.057 59.1064 752.265 59.1064C753.609 59.1064 754.869 58.8124 756.045 58.3084V51.9664C755.247 53.2264 753.861 54.0664 752.265 54.0664C749.829 54.0664 747.813 52.0504 747.813 49.6144V37.3084H748.485V49.6144C748.485 51.6724 750.207 53.3944 752.265 53.3944C754.323 53.3944 756.045 51.6724 756.045 49.6144V37.3084H756.717V57.9724C759.699 56.3764 761.757 53.2264 761.757 49.6144V37.3084H762.429ZM771.884 37.3084L775.538 42.8524L779.234 37.3084H780.074L775.958 43.4824L778.814 47.8084L785.786 37.3084H786.626L779.234 48.4384L786.626 59.5684H785.786L778.814 49.0684L775.958 53.3944L780.074 59.5684H779.234L775.58 54.0244L771.884 59.5684H771.044L775.16 53.3944L772.262 49.0684L765.332 59.5684H764.492L771.842 48.4384L764.492 37.3084H765.332L772.262 47.8084L775.118 43.4824L771.044 37.3084H771.884ZM775.538 52.7644L778.394 48.4384L775.538 44.1124L772.682 48.4384L775.538 52.7644ZM811.591 53.6884C816.421 53.6884 820.411 49.6984 820.411 44.8684C820.411 40.0384 816.421 36.0484 811.591 36.0484C806.761 36.0484 802.771 40.0384 802.771 44.8684C802.771 49.6984 806.761 53.6884 811.591 53.6884ZM819.865 49.4464L823.351 53.3944C825.073 51.0004 826.123 48.0604 826.123 44.8684C826.123 36.8464 819.613 30.3364 811.591 30.3364C803.569 30.3364 797.059 36.8464 797.059 44.8684C797.059 52.8904 803.569 59.4004 811.591 59.4004C814.111 59.4004 816.505 58.7704 818.605 57.5944L815.161 53.6464C814.069 54.1084 812.851 54.3604 811.591 54.3604C806.425 54.3604 802.099 50.0344 802.099 44.8684C802.099 39.7024 806.425 35.3764 811.591 35.3764C816.757 35.3764 821.083 39.7024 821.083 44.8684C821.083 46.5484 820.621 48.1024 819.865 49.4464ZM815.791 53.3524L819.151 57.2584C820.453 56.5444 821.923 55.2424 822.931 53.9404L819.487 50.0344C818.647 51.3784 817.387 52.5544 815.791 53.3524ZM825.367 56.7124L823.393 54.4444C822.259 55.8724 820.789 57.0904 819.613 57.7624L821.545 60.0304L821.041 60.4504L819.025 58.0984C816.841 59.3584 814.279 60.0724 811.591 60.0724C803.233 60.0724 796.387 53.2264 796.387 44.8684C796.387 36.5104 803.233 29.6644 811.591 29.6644C819.949 29.6644 826.795 36.5104 826.795 44.8684C826.795 48.2704 825.661 51.3784 823.771 53.8984L825.871 56.2924L825.367 56.7124ZM850.038 37.3084V59.5684H849.366V53.2264C848.442 55.6204 846.636 57.5944 844.326 58.7284V59.5684H843.654V59.0644C842.478 59.5264 841.218 59.7784 839.874 59.7784C834.288 59.7784 829.71 55.2004 829.71 49.6144V37.3084H830.382V49.6144C830.382 54.8224 834.666 59.1064 839.874 59.1064C841.218 59.1064 842.478 58.8124 843.654 58.3084V51.9664C842.856 53.2264 841.47 54.0664 839.874 54.0664C837.438 54.0664 835.422 52.0504 835.422 49.6144V37.3084H836.094V49.6144C836.094 51.6724 837.816 53.3944 839.874 53.3944C841.932 53.3944 843.654 51.6724 843.654 49.6144V37.3084H844.326V57.9724C847.308 56.3764 849.366 53.2264 849.366 49.6144V37.3084H850.038ZM854.328 59.5684V37.3084H855V59.5684H854.328ZM860.712 37.3084V59.5684H860.04V37.3084H860.712ZM860.04 35.1244V28.0684H860.712V35.1244H860.04ZM855 28.0684V35.1244H854.328V28.0684H855ZM870.578 58.8964H881.414V59.5684H863.102L871.46 43.6924H864.32V43.0204H871.796L874.484 37.9804H864.32V37.3084H881.96L873.602 53.1844H881.414V53.8564H873.266L870.578 58.8964ZM872.846 53.1844L877.844 43.6924H872.216L867.218 53.1844H872.846ZM872.51 53.8564H866.882L864.194 58.8964H869.822L872.51 53.8564ZM878.18 43.0204L880.868 37.9804H875.24L872.552 43.0204H878.18ZM907.106 59.5684H906.434L900.386 44.0704V59.5684H899.714V36.5524H894.674V59.5684H894.002V30.1684H903.368C908.744 30.1684 913.028 34.4524 913.028 39.8284C913.028 44.1124 910.886 46.6324 908.408 48.1864L912.818 59.5684H912.146L907.862 48.5224C906.644 49.2364 904.922 49.8664 903.494 50.2864L907.106 59.5684ZM906.182 42.4744L908.156 47.5564C910.424 46.1284 912.356 43.7764 912.356 39.8284C912.356 34.7884 908.408 30.8404 903.368 30.8404H900.386V35.8804H903.368C905.552 35.8804 907.316 37.6444 907.316 39.8284C907.316 40.8364 906.938 41.7184 906.182 42.4744ZM900.386 36.5524V44.0704L901.982 43.7344C905.258 43.0204 906.644 41.6344 906.644 39.8284C906.644 37.9804 905.216 36.5524 903.368 36.5524H900.386ZM894.674 30.8404V35.8804H899.714V30.8404H894.674ZM907.61 47.8924L905.678 42.9364C904.418 43.9024 902.948 44.2384 901.31 44.5744L903.242 49.6144C904.502 49.2784 906.56 48.5224 907.61 47.8924ZM914.55 48.4384C914.55 42.0124 919.758 36.8044 926.184 36.8044C931.308 36.8044 935.634 40.0804 937.188 44.7004L923.538 52.9744C924.336 53.4364 925.218 53.6884 926.184 53.6884C928.284 53.6884 930.09 52.4284 930.93 50.6644L931.56 50.9584C930.636 52.9744 928.578 54.3604 926.184 54.3604C924.966 54.3604 923.832 53.9824 922.908 53.3524L918.372 56.1244C920.346 58.1404 923.118 59.4004 926.184 59.4004C930.552 59.4004 934.374 56.7964 936.138 53.0584L936.726 53.3524C934.878 57.3424 930.846 60.0724 926.184 60.0724C919.758 60.0724 914.55 54.8644 914.55 48.4384ZM915.222 48.4384C915.222 49.6564 915.432 50.7904 915.768 51.8824L920.304 49.1104C920.262 48.9004 920.262 48.6484 920.262 48.4384C920.262 45.1624 922.908 42.5164 926.184 42.5164C927.402 42.5164 928.578 42.8944 929.502 43.5244L933.996 40.7944C932.022 38.7364 929.25 37.4764 926.184 37.4764C920.136 37.4764 915.222 42.3904 915.222 48.4384ZM916.02 52.5124C916.482 53.6464 917.112 54.6964 917.91 55.6204L922.32 52.9324C921.396 52.1344 920.724 51.0424 920.43 49.8244L916.02 52.5124ZM920.934 48.4384V48.7324L928.872 43.9024C928.074 43.4404 927.15 43.1884 926.184 43.1884C923.286 43.1884 920.934 45.5404 920.934 48.4384ZM921.018 49.4884C921.27 50.7064 921.984 51.7984 922.95 52.5544L931.35 47.4304C931.098 46.2124 930.426 45.1204 929.46 44.3224L921.018 49.4884ZM930.09 43.9864C931.014 44.7844 931.686 45.8344 931.938 47.0944L936.39 44.3644C935.928 43.2304 935.256 42.2224 934.5 41.2984L930.09 43.9864ZM937.97 48.4384C937.97 42.0124 943.178 36.8044 949.604 36.8044C951.494 36.8044 953.258 37.2664 954.854 38.0644V28.0684H955.526V38.4424C957.878 39.7444 959.684 42.0964 960.566 44.5324V28.0684H961.238V59.5684H960.566V52.3024C959.726 54.6964 957.878 57.1744 955.526 58.4764V59.5684H954.854V58.8124C953.258 59.6104 951.494 60.0724 949.604 60.0724C943.178 60.0724 937.97 54.8644 937.97 48.4384ZM938.642 48.4384C938.642 54.4864 943.556 59.4004 949.604 59.4004C951.494 59.4004 953.3 58.9384 954.854 58.0984V51.2104C953.846 53.0584 951.872 54.3604 949.604 54.3604C946.328 54.3604 943.682 51.7144 943.682 48.4384C943.682 45.1624 946.328 42.5164 949.604 42.5164C951.872 42.5164 953.846 43.8184 954.854 45.7084V38.8204C953.3 37.9804 951.494 37.4764 949.604 37.4764C943.556 37.4764 938.642 42.3904 938.642 48.4384ZM944.354 48.4384C944.354 51.3364 946.706 53.6884 949.604 53.6884C952.544 53.6884 954.854 51.3364 954.854 48.4384C954.854 45.5404 952.544 43.1884 949.604 43.1884C946.706 43.1884 944.354 45.5404 944.354 48.4384ZM955.526 39.1984V57.6784C958.34 55.9564 960.566 52.4704 960.566 48.4384C960.566 44.4064 958.34 40.9204 955.526 39.1984ZM985.513 37.3084V59.5684H984.841V53.2264C983.917 55.6204 982.111 57.5944 979.801 58.7284V59.5684H979.129V59.0644C977.953 59.5264 976.693 59.7784 975.349 59.7784C969.763 59.7784 965.185 55.2004 965.185 49.6144V37.3084H965.857V49.6144C965.857 54.8224 970.141 59.1064 975.349 59.1064C976.693 59.1064 977.953 58.8124 979.129 58.3084V51.9664C978.331 53.2264 976.945 54.0664 975.349 54.0664C972.913 54.0664 970.897 52.0504 970.897 49.6144V37.3084H971.569V49.6144C971.569 51.6724 973.291 53.3944 975.349 53.3944C977.407 53.3944 979.129 51.6724 979.129 49.6144V37.3084H979.801V57.9724C982.783 56.3764 984.841 53.2264 984.841 49.6144V37.3084H985.513ZM994.968 37.3084L998.622 42.8524L1002.32 37.3084H1003.16L999.042 43.4824L1001.9 47.8084L1008.87 37.3084H1009.71L1002.32 48.4384L1009.71 59.5684H1008.87L1001.9 49.0684L999.042 53.3944L1003.16 59.5684H1002.32L998.664 54.0244L994.968 59.5684H994.128L998.244 53.3944L995.346 49.0684L988.416 59.5684H987.576L994.926 48.4384L987.576 37.3084H988.416L995.346 47.8084L998.202 43.4824L994.128 37.3084H994.968ZM998.622 52.7644L1001.48 48.4384L998.622 44.1124L995.766 48.4384L998.622 52.7644ZM1034.67 53.6884C1039.5 53.6884 1043.49 49.6984 1043.49 44.8684C1043.49 40.0384 1039.5 36.0484 1034.67 36.0484C1029.84 36.0484 1025.85 40.0384 1025.85 44.8684C1025.85 49.6984 1029.84 53.6884 1034.67 53.6884ZM1042.95 49.4464L1046.43 53.3944C1048.16 51.0004 1049.21 48.0604 1049.21 44.8684C1049.21 36.8464 1042.7 30.3364 1034.67 30.3364C1026.65 30.3364 1020.14 36.8464 1020.14 44.8684C1020.14 52.8904 1026.65 59.4004 1034.67 59.4004C1037.19 59.4004 1039.59 58.7704 1041.69 57.5944L1038.24 53.6464C1037.15 54.1084 1035.93 54.3604 1034.67 54.3604C1029.51 54.3604 1025.18 50.0344 1025.18 44.8684C1025.18 39.7024 1029.51 35.3764 1034.67 35.3764C1039.84 35.3764 1044.17 39.7024 1044.17 44.8684C1044.17 46.5484 1043.7 48.1024 1042.95 49.4464ZM1038.87 53.3524L1042.23 57.2584C1043.54 56.5444 1045.01 55.2424 1046.01 53.9404L1042.57 50.0344C1041.73 51.3784 1040.47 52.5544 1038.87 53.3524ZM1048.45 56.7124L1046.48 54.4444C1045.34 55.8724 1043.87 57.0904 1042.7 57.7624L1044.63 60.0304L1044.12 60.4504L1042.11 58.0984C1039.92 59.3584 1037.36 60.0724 1034.67 60.0724C1026.32 60.0724 1019.47 53.2264 1019.47 44.8684C1019.47 36.5104 1026.32 29.6644 1034.67 29.6644C1043.03 29.6644 1049.88 36.5104 1049.88 44.8684C1049.88 48.2704 1048.74 51.3784 1046.85 53.8984L1048.95 56.2924L1048.45 56.7124ZM1073.12 37.3084V59.5684H1072.45V53.2264C1071.53 55.6204 1069.72 57.5944 1067.41 58.7284V59.5684H1066.74V59.0644C1065.56 59.5264 1064.3 59.7784 1062.96 59.7784C1057.37 59.7784 1052.79 55.2004 1052.79 49.6144V37.3084H1053.47V49.6144C1053.47 54.8224 1057.75 59.1064 1062.96 59.1064C1064.3 59.1064 1065.56 58.8124 1066.74 58.3084V51.9664C1065.94 53.2264 1064.55 54.0664 1062.96 54.0664C1060.52 54.0664 1058.51 52.0504 1058.51 49.6144V37.3084H1059.18V49.6144C1059.18 51.6724 1060.9 53.3944 1062.96 53.3944C1065.02 53.3944 1066.74 51.6724 1066.74 49.6144V37.3084H1067.41V57.9724C1070.39 56.3764 1072.45 53.2264 1072.45 49.6144V37.3084H1073.12ZM1077.41 59.5684V37.3084H1078.08V59.5684H1077.41ZM1083.8 37.3084V59.5684H1083.12V37.3084H1083.8ZM1083.12 35.1244V28.0684H1083.8V35.1244H1083.12ZM1078.08 28.0684V35.1244H1077.41V28.0684H1078.08ZM1093.66 58.8964H1104.5V59.5684H1086.19L1094.54 43.6924H1087.4V43.0204H1094.88L1097.57 37.9804H1087.4V37.3084H1105.04L1096.69 53.1844H1104.5V53.8564H1096.35L1093.66 58.8964ZM1095.93 53.1844L1100.93 43.6924H1095.3L1090.3 53.1844H1095.93ZM1095.59 53.8564H1089.97L1087.28 58.8964H1092.91L1095.59 53.8564ZM1101.26 43.0204L1103.95 37.9804H1098.32L1095.64 43.0204H1101.26ZM1130.19 59.5684H1129.52L1123.47 44.0704V59.5684H1122.8V36.5524H1117.76V59.5684H1117.09V30.1684H1126.45C1131.83 30.1684 1136.11 34.4524 1136.11 39.8284C1136.11 44.1124 1133.97 46.6324 1131.49 48.1864L1135.9 59.5684H1135.23L1130.95 48.5224C1129.73 49.2364 1128.01 49.8664 1126.58 50.2864L1130.19 59.5684ZM1129.27 42.4744L1131.24 47.5564C1133.51 46.1284 1135.44 43.7764 1135.44 39.8284C1135.44 34.7884 1131.49 30.8404 1126.45 30.8404H1123.47V35.8804H1126.45C1128.64 35.8804 1130.4 37.6444 1130.4 39.8284C1130.4 40.8364 1130.02 41.7184 1129.27 42.4744ZM1123.47 36.5524V44.0704L1125.07 43.7344C1128.34 43.0204 1129.73 41.6344 1129.73 39.8284C1129.73 37.9804 1128.3 36.5524 1126.45 36.5524H1123.47ZM1117.76 30.8404V35.8804H1122.8V30.8404H1117.76ZM1130.69 47.8924L1128.76 42.9364C1127.5 43.9024 1126.03 44.2384 1124.39 44.5744L1126.33 49.6144C1127.59 49.2784 1129.64 48.5224 1130.69 47.8924ZM1137.63 48.4384C1137.63 42.0124 1142.84 36.8044 1149.27 36.8044C1154.39 36.8044 1158.72 40.0804 1160.27 44.7004L1146.62 52.9744C1147.42 53.4364 1148.3 53.6884 1149.27 53.6884C1151.37 53.6884 1153.17 52.4284 1154.01 50.6644L1154.64 50.9584C1153.72 52.9744 1151.66 54.3604 1149.27 54.3604C1148.05 54.3604 1146.92 53.9824 1145.99 53.3524L1141.46 56.1244C1143.43 58.1404 1146.2 59.4004 1149.27 59.4004C1153.64 59.4004 1157.46 56.7964 1159.22 53.0584L1159.81 53.3524C1157.96 57.3424 1153.93 60.0724 1149.27 60.0724C1142.84 60.0724 1137.63 54.8644 1137.63 48.4384ZM1138.31 48.4384C1138.31 49.6564 1138.52 50.7904 1138.85 51.8824L1143.39 49.1104C1143.35 48.9004 1143.35 48.6484 1143.35 48.4384C1143.35 45.1624 1145.99 42.5164 1149.27 42.5164C1150.49 42.5164 1151.66 42.8944 1152.59 43.5244L1157.08 40.7944C1155.11 38.7364 1152.33 37.4764 1149.27 37.4764C1143.22 37.4764 1138.31 42.3904 1138.31 48.4384ZM1139.1 52.5124C1139.57 53.6464 1140.2 54.6964 1140.99 55.6204L1145.4 52.9324C1144.48 52.1344 1143.81 51.0424 1143.51 49.8244L1139.1 52.5124ZM1144.02 48.4384V48.7324L1151.96 43.9024C1151.16 43.4404 1150.23 43.1884 1149.27 43.1884C1146.37 43.1884 1144.02 45.5404 1144.02 48.4384ZM1144.1 49.4884C1144.35 50.7064 1145.07 51.7984 1146.03 52.5544L1154.43 47.4304C1154.18 46.2124 1153.51 45.1204 1152.54 44.3224L1144.1 49.4884ZM1153.17 43.9864C1154.1 44.7844 1154.77 45.8344 1155.02 47.0944L1159.47 44.3644C1159.01 43.2304 1158.34 42.2224 1157.58 41.2984L1153.17 43.9864ZM1161.05 48.4384C1161.05 42.0124 1166.26 36.8044 1172.69 36.8044C1174.58 36.8044 1176.34 37.2664 1177.94 38.0644V28.0684H1178.61V38.4424C1180.96 39.7444 1182.77 42.0964 1183.65 44.5324V28.0684H1184.32V59.5684H1183.65V52.3024C1182.81 54.6964 1180.96 57.1744 1178.61 58.4764V59.5684H1177.94V58.8124C1176.34 59.6104 1174.58 60.0724 1172.69 60.0724C1166.26 60.0724 1161.05 54.8644 1161.05 48.4384ZM1161.73 48.4384C1161.73 54.4864 1166.64 59.4004 1172.69 59.4004C1174.58 59.4004 1176.38 58.9384 1177.94 58.0984V51.2104C1176.93 53.0584 1174.96 54.3604 1172.69 54.3604C1169.41 54.3604 1166.77 51.7144 1166.77 48.4384C1166.77 45.1624 1169.41 42.5164 1172.69 42.5164C1174.96 42.5164 1176.93 43.8184 1177.94 45.7084V38.8204C1176.38 37.9804 1174.58 37.4764 1172.69 37.4764C1166.64 37.4764 1161.73 42.3904 1161.73 48.4384ZM1167.44 48.4384C1167.44 51.3364 1169.79 53.6884 1172.69 53.6884C1175.63 53.6884 1177.94 51.3364 1177.94 48.4384C1177.94 45.5404 1175.63 43.1884 1172.69 43.1884C1169.79 43.1884 1167.44 45.5404 1167.44 48.4384ZM1178.61 39.1984V57.6784C1181.42 55.9564 1183.65 52.4704 1183.65 48.4384C1183.65 44.4064 1181.42 40.9204 1178.61 39.1984ZM1208.6 37.3084V59.5684H1207.92V53.2264C1207 55.6204 1205.19 57.5944 1202.88 58.7284V59.5684H1202.21V59.0644C1201.04 59.5264 1199.78 59.7784 1198.43 59.7784C1192.85 59.7784 1188.27 55.2004 1188.27 49.6144V37.3084H1188.94V49.6144C1188.94 54.8224 1193.22 59.1064 1198.43 59.1064C1199.78 59.1064 1201.04 58.8124 1202.21 58.3084V51.9664C1201.41 53.2264 1200.03 54.0664 1198.43 54.0664C1196 54.0664 1193.98 52.0504 1193.98 49.6144V37.3084H1194.65V49.6144C1194.65 51.6724 1196.37 53.3944 1198.43 53.3944C1200.49 53.3944 1202.21 51.6724 1202.21 49.6144V37.3084H1202.88V57.9724C1205.87 56.3764 1207.92 53.2264 1207.92 49.6144V37.3084H1208.6ZM1218.05 37.3084L1221.71 42.8524L1225.4 37.3084H1226.24L1222.13 43.4824L1224.98 47.8084L1231.95 37.3084H1232.79L1225.4 48.4384L1232.79 59.5684H1231.95L1224.98 49.0684L1222.13 53.3944L1226.24 59.5684H1225.4L1221.75 54.0244L1218.05 59.5684H1217.21L1221.33 53.3944L1218.43 49.0684L1211.5 59.5684H1210.66L1218.01 48.4384L1210.66 37.3084H1211.5L1218.43 47.8084L1221.29 43.4824L1217.21 37.3084H1218.05ZM1221.71 52.7644L1224.56 48.4384L1221.71 44.1124L1218.85 48.4384L1221.71 52.7644ZM1257.76 53.6884C1262.59 53.6884 1266.58 49.6984 1266.58 44.8684C1266.58 40.0384 1262.59 36.0484 1257.76 36.0484C1252.93 36.0484 1248.94 40.0384 1248.94 44.8684C1248.94 49.6984 1252.93 53.6884 1257.76 53.6884ZM1266.03 49.4464L1269.52 53.3944C1271.24 51.0004 1272.29 48.0604 1272.29 44.8684C1272.29 36.8464 1265.78 30.3364 1257.76 30.3364C1249.74 30.3364 1243.23 36.8464 1243.23 44.8684C1243.23 52.8904 1249.74 59.4004 1257.76 59.4004C1260.28 59.4004 1262.67 58.7704 1264.77 57.5944L1261.33 53.6464C1260.24 54.1084 1259.02 54.3604 1257.76 54.3604C1252.59 54.3604 1248.27 50.0344 1248.27 44.8684C1248.27 39.7024 1252.59 35.3764 1257.76 35.3764C1262.92 35.3764 1267.25 39.7024 1267.25 44.8684C1267.25 46.5484 1266.79 48.1024 1266.03 49.4464ZM1261.96 53.3524L1265.32 57.2584C1266.62 56.5444 1268.09 55.2424 1269.1 53.9404L1265.65 50.0344C1264.81 51.3784 1263.55 52.5544 1261.96 53.3524ZM1271.53 56.7124L1269.56 54.4444C1268.43 55.8724 1266.96 57.0904 1265.78 57.7624L1267.71 60.0304L1267.21 60.4504L1265.19 58.0984C1263.01 59.3584 1260.45 60.0724 1257.76 60.0724C1249.4 60.0724 1242.55 53.2264 1242.55 44.8684C1242.55 36.5104 1249.4 29.6644 1257.76 29.6644C1266.12 29.6644 1272.96 36.5104 1272.96 44.8684C1272.96 48.2704 1271.83 51.3784 1269.94 53.8984L1272.04 56.2924L1271.53 56.7124ZM1296.21 37.3084V59.5684H1295.53V53.2264C1294.61 55.6204 1292.8 57.5944 1290.49 58.7284V59.5684H1289.82V59.0644C1288.65 59.5264 1287.39 59.7784 1286.04 59.7784C1280.46 59.7784 1275.88 55.2004 1275.88 49.6144V37.3084H1276.55V49.6144C1276.55 54.8224 1280.83 59.1064 1286.04 59.1064C1287.39 59.1064 1288.65 58.8124 1289.82 58.3084V51.9664C1289.02 53.2264 1287.64 54.0664 1286.04 54.0664C1283.61 54.0664 1281.59 52.0504 1281.59 49.6144V37.3084H1282.26V49.6144C1282.26 51.6724 1283.98 53.3944 1286.04 53.3944C1288.1 53.3944 1289.82 51.6724 1289.82 49.6144V37.3084H1290.49V57.9724C1293.48 56.3764 1295.53 53.2264 1295.53 49.6144V37.3084H1296.21ZM1300.5 59.5684V37.3084H1301.17V59.5684H1300.5ZM1306.88 37.3084V59.5684H1306.21V37.3084H1306.88ZM1306.21 35.1244V28.0684H1306.88V35.1244H1306.21ZM1301.17 28.0684V35.1244H1300.5V28.0684H1301.17ZM1316.75 58.8964H1327.58V59.5684H1309.27L1317.63 43.6924H1310.49V43.0204H1317.96L1320.65 37.9804H1310.49V37.3084H1328.13L1319.77 53.1844H1327.58V53.8564H1319.43L1316.75 58.8964ZM1319.01 53.1844L1324.01 43.6924H1318.38L1313.39 53.1844H1319.01ZM1318.68 53.8564H1313.05L1310.36 58.8964H1315.99L1318.68 53.8564ZM1324.35 43.0204L1327.04 37.9804H1321.41L1318.72 43.0204H1324.35ZM1353.27 59.5684H1352.6L1346.55 44.0704V59.5684H1345.88V36.5524H1340.84V59.5684H1340.17V30.1684H1349.54C1354.91 30.1684 1359.2 34.4524 1359.2 39.8284C1359.2 44.1124 1357.05 46.6324 1354.58 48.1864L1358.99 59.5684H1358.31L1354.03 48.5224C1352.81 49.2364 1351.09 49.8664 1349.66 50.2864L1353.27 59.5684ZM1352.35 42.4744L1354.32 47.5564C1356.59 46.1284 1358.52 43.7764 1358.52 39.8284C1358.52 34.7884 1354.58 30.8404 1349.54 30.8404H1346.55V35.8804H1349.54C1351.72 35.8804 1353.48 37.6444 1353.48 39.8284C1353.48 40.8364 1353.11 41.7184 1352.35 42.4744ZM1346.55 36.5524V44.0704L1348.15 43.7344C1351.43 43.0204 1352.81 41.6344 1352.81 39.8284C1352.81 37.9804 1351.38 36.5524 1349.54 36.5524H1346.55ZM1340.84 30.8404V35.8804H1345.88V30.8404H1340.84ZM1353.78 47.8924L1351.85 42.9364C1350.59 43.9024 1349.12 44.2384 1347.48 44.5744L1349.41 49.6144C1350.67 49.2784 1352.73 48.5224 1353.78 47.8924ZM1360.72 48.4384C1360.72 42.0124 1365.93 36.8044 1372.35 36.8044C1377.48 36.8044 1381.8 40.0804 1383.36 44.7004L1369.71 52.9744C1370.5 53.4364 1371.39 53.6884 1372.35 53.6884C1374.45 53.6884 1376.26 52.4284 1377.1 50.6644L1377.73 50.9584C1376.8 52.9744 1374.75 54.3604 1372.35 54.3604C1371.13 54.3604 1370 53.9824 1369.08 53.3524L1364.54 56.1244C1366.51 58.1404 1369.29 59.4004 1372.35 59.4004C1376.72 59.4004 1380.54 56.7964 1382.31 53.0584L1382.89 53.3524C1381.05 57.3424 1377.01 60.0724 1372.35 60.0724C1365.93 60.0724 1360.72 54.8644 1360.72 48.4384ZM1361.39 48.4384C1361.39 49.6564 1361.6 50.7904 1361.94 51.8824L1366.47 49.1104C1366.43 48.9004 1366.43 48.6484 1366.43 48.4384C1366.43 45.1624 1369.08 42.5164 1372.35 42.5164C1373.57 42.5164 1374.75 42.8944 1375.67 43.5244L1380.16 40.7944C1378.19 38.7364 1375.42 37.4764 1372.35 37.4764C1366.3 37.4764 1361.39 42.3904 1361.39 48.4384ZM1362.19 52.5124C1362.65 53.6464 1363.28 54.6964 1364.08 55.6204L1368.49 52.9324C1367.56 52.1344 1366.89 51.0424 1366.6 49.8244L1362.19 52.5124ZM1367.1 48.4384V48.7324L1375.04 43.9024C1374.24 43.4404 1373.32 43.1884 1372.35 43.1884C1369.45 43.1884 1367.1 45.5404 1367.1 48.4384ZM1367.19 49.4884C1367.44 50.7064 1368.15 51.7984 1369.12 52.5544L1377.52 47.4304C1377.27 46.2124 1376.59 45.1204 1375.63 44.3224L1367.19 49.4884ZM1376.26 43.9864C1377.18 44.7844 1377.85 45.8344 1378.11 47.0944L1382.56 44.3644C1382.1 43.2304 1381.42 42.2224 1380.67 41.2984L1376.26 43.9864ZM1384.14 48.4384C1384.14 42.0124 1389.35 36.8044 1395.77 36.8044C1397.66 36.8044 1399.43 37.2664 1401.02 38.0644V28.0684H1401.69V38.4424C1404.05 39.7444 1405.85 42.0964 1406.73 44.5324V28.0684H1407.41V59.5684H1406.73V52.3024C1405.89 54.6964 1404.05 57.1744 1401.69 58.4764V59.5684H1401.02V58.8124C1399.43 59.6104 1397.66 60.0724 1395.77 60.0724C1389.35 60.0724 1384.14 54.8644 1384.14 48.4384ZM1384.81 48.4384C1384.81 54.4864 1389.72 59.4004 1395.77 59.4004C1397.66 59.4004 1399.47 58.9384 1401.02 58.0984V51.2104C1400.01 53.0584 1398.04 54.3604 1395.77 54.3604C1392.5 54.3604 1389.85 51.7144 1389.85 48.4384C1389.85 45.1624 1392.5 42.5164 1395.77 42.5164C1398.04 42.5164 1400.01 43.8184 1401.02 45.7084V38.8204C1399.47 37.9804 1397.66 37.4764 1395.77 37.4764C1389.72 37.4764 1384.81 42.3904 1384.81 48.4384ZM1390.52 48.4384C1390.52 51.3364 1392.87 53.6884 1395.77 53.6884C1398.71 53.6884 1401.02 51.3364 1401.02 48.4384C1401.02 45.5404 1398.71 43.1884 1395.77 43.1884C1392.87 43.1884 1390.52 45.5404 1390.52 48.4384ZM1401.69 39.1984V57.6784C1404.51 55.9564 1406.73 52.4704 1406.73 48.4384C1406.73 44.4064 1404.51 40.9204 1401.69 39.1984ZM1431.68 37.3084V59.5684H1431.01V53.2264C1430.08 55.6204 1428.28 57.5944 1425.97 58.7284V59.5684H1425.3V59.0644C1424.12 59.5264 1422.86 59.7784 1421.52 59.7784C1415.93 59.7784 1411.35 55.2004 1411.35 49.6144V37.3084H1412.02V49.6144C1412.02 54.8224 1416.31 59.1064 1421.52 59.1064C1422.86 59.1064 1424.12 58.8124 1425.3 58.3084V51.9664C1424.5 53.2264 1423.11 54.0664 1421.52 54.0664C1419.08 54.0664 1417.06 52.0504 1417.06 49.6144V37.3084H1417.74V49.6144C1417.74 51.6724 1419.46 53.3944 1421.52 53.3944C1423.57 53.3944 1425.3 51.6724 1425.3 49.6144V37.3084H1425.97V57.9724C1428.95 56.3764 1431.01 53.2264 1431.01 49.6144V37.3084H1431.68ZM1441.14 37.3084L1444.79 42.8524L1448.49 37.3084H1449.33L1445.21 43.4824L1448.07 47.8084L1455.04 37.3084H1455.88L1448.49 48.4384L1455.88 59.5684H1455.04L1448.07 49.0684L1445.21 53.3944L1449.33 59.5684H1448.49L1444.83 54.0244L1441.14 59.5684H1440.3L1444.41 53.3944L1441.51 49.0684L1434.58 59.5684H1433.74L1441.09 48.4384L1433.74 37.3084H1434.58L1441.51 47.8084L1444.37 43.4824L1440.3 37.3084H1441.14ZM1444.79 52.7644L1447.65 48.4384L1444.79 44.1124L1441.93 48.4384L1444.79 52.7644ZM1480.84 53.6884C1485.67 53.6884 1489.66 49.6984 1489.66 44.8684C1489.66 40.0384 1485.67 36.0484 1480.84 36.0484C1476.01 36.0484 1472.02 40.0384 1472.02 44.8684C1472.02 49.6984 1476.01 53.6884 1480.84 53.6884ZM1489.12 49.4464L1492.6 53.3944C1494.32 51.0004 1495.37 48.0604 1495.37 44.8684C1495.37 36.8464 1488.86 30.3364 1480.84 30.3364C1472.82 30.3364 1466.31 36.8464 1466.31 44.8684C1466.31 52.8904 1472.82 59.4004 1480.84 59.4004C1483.36 59.4004 1485.76 58.7704 1487.86 57.5944L1484.41 53.6464C1483.32 54.1084 1482.1 54.3604 1480.84 54.3604C1475.68 54.3604 1471.35 50.0344 1471.35 44.8684C1471.35 39.7024 1475.68 35.3764 1480.84 35.3764C1486.01 35.3764 1490.33 39.7024 1490.33 44.8684C1490.33 46.5484 1489.87 48.1024 1489.12 49.4464ZM1485.04 53.3524L1488.4 57.2584C1489.7 56.5444 1491.17 55.2424 1492.18 53.9404L1488.74 50.0344C1487.9 51.3784 1486.64 52.5544 1485.04 53.3524ZM1494.62 56.7124L1492.64 54.4444C1491.51 55.8724 1490.04 57.0904 1488.86 57.7624L1490.8 60.0304L1490.29 60.4504L1488.28 58.0984C1486.09 59.3584 1483.53 60.0724 1480.84 60.0724C1472.48 60.0724 1465.64 53.2264 1465.64 44.8684C1465.64 36.5104 1472.48 29.6644 1480.84 29.6644C1489.2 29.6644 1496.05 36.5104 1496.05 44.8684C1496.05 48.2704 1494.91 51.3784 1493.02 53.8984L1495.12 56.2924L1494.62 56.7124ZM1519.29 37.3084V59.5684H1518.62V53.2264C1517.69 55.6204 1515.89 57.5944 1513.58 58.7284V59.5684H1512.91V59.0644C1511.73 59.5264 1510.47 59.7784 1509.13 59.7784C1503.54 59.7784 1498.96 55.2004 1498.96 49.6144V37.3084H1499.63V49.6144C1499.63 54.8224 1503.92 59.1064 1509.13 59.1064C1510.47 59.1064 1511.73 58.8124 1512.91 58.3084V51.9664C1512.11 53.2264 1510.72 54.0664 1509.13 54.0664C1506.69 54.0664 1504.67 52.0504 1504.67 49.6144V37.3084H1505.35V49.6144C1505.35 51.6724 1507.07 53.3944 1509.13 53.3944C1511.18 53.3944 1512.91 51.6724 1512.91 49.6144V37.3084H1513.58V57.9724C1516.56 56.3764 1518.62 53.2264 1518.62 49.6144V37.3084H1519.29ZM1523.58 59.5684V37.3084H1524.25V59.5684H1523.58ZM1529.96 37.3084V59.5684H1529.29V37.3084H1529.96ZM1529.29 35.1244V28.0684H1529.96V35.1244H1529.29ZM1524.25 28.0684V35.1244H1523.58V28.0684H1524.25ZM1539.83 58.8964H1550.67V59.5684H1532.35L1540.71 43.6924H1533.57V43.0204H1541.05L1543.74 37.9804H1533.57V37.3084H1551.21L1542.85 53.1844H1550.67V53.8564H1542.52L1539.83 58.8964ZM1542.1 53.1844L1547.1 43.6924H1541.47L1536.47 53.1844H1542.1ZM1541.76 53.8564H1536.13L1533.45 58.8964H1539.07L1541.76 53.8564ZM1547.43 43.0204L1550.12 37.9804H1544.49L1541.8 43.0204H1547.43ZM1576.36 59.5684H1575.69L1569.64 44.0704V59.5684H1568.97V36.5524H1563.93V59.5684H1563.25V30.1684H1572.62C1578 30.1684 1582.28 34.4524 1582.28 39.8284C1582.28 44.1124 1580.14 46.6324 1577.66 48.1864L1582.07 59.5684H1581.4L1577.11 48.5224C1575.9 49.2364 1574.17 49.8664 1572.75 50.2864L1576.36 59.5684ZM1575.43 42.4744L1577.41 47.5564C1579.68 46.1284 1581.61 43.7764 1581.61 39.8284C1581.61 34.7884 1577.66 30.8404 1572.62 30.8404H1569.64V35.8804H1572.62C1574.8 35.8804 1576.57 37.6444 1576.57 39.8284C1576.57 40.8364 1576.19 41.7184 1575.43 42.4744ZM1569.64 36.5524V44.0704L1571.23 43.7344C1574.51 43.0204 1575.9 41.6344 1575.9 39.8284C1575.9 37.9804 1574.47 36.5524 1572.62 36.5524H1569.64ZM1563.93 30.8404V35.8804H1568.97V30.8404H1563.93ZM1576.86 47.8924L1574.93 42.9364C1573.67 43.9024 1572.2 44.2384 1570.56 44.5744L1572.49 49.6144C1573.75 49.2784 1575.81 48.5224 1576.86 47.8924ZM1583.8 48.4384C1583.8 42.0124 1589.01 36.8044 1595.44 36.8044C1600.56 36.8044 1604.89 40.0804 1606.44 44.7004L1592.79 52.9744C1593.59 53.4364 1594.47 53.6884 1595.44 53.6884C1597.54 53.6884 1599.34 52.4284 1600.18 50.6644L1600.81 50.9584C1599.89 52.9744 1597.83 54.3604 1595.44 54.3604C1594.22 54.3604 1593.08 53.9824 1592.16 53.3524L1587.62 56.1244C1589.6 58.1404 1592.37 59.4004 1595.44 59.4004C1599.8 59.4004 1603.63 56.7964 1605.39 53.0584L1605.98 53.3524C1604.13 57.3424 1600.1 60.0724 1595.44 60.0724C1589.01 60.0724 1583.8 54.8644 1583.8 48.4384ZM1584.47 48.4384C1584.47 49.6564 1584.68 50.7904 1585.02 51.8824L1589.56 49.1104C1589.51 48.9004 1589.51 48.6484 1589.51 48.4384C1589.51 45.1624 1592.16 42.5164 1595.44 42.5164C1596.65 42.5164 1597.83 42.8944 1598.75 43.5244L1603.25 40.7944C1601.27 38.7364 1598.5 37.4764 1595.44 37.4764C1589.39 37.4764 1584.47 42.3904 1584.47 48.4384ZM1585.27 52.5124C1585.73 53.6464 1586.36 54.6964 1587.16 55.6204L1591.57 52.9324C1590.65 52.1344 1589.98 51.0424 1589.68 49.8244L1585.27 52.5124ZM1590.19 48.4384V48.7324L1598.12 43.9024C1597.33 43.4404 1596.4 43.1884 1595.44 43.1884C1592.54 43.1884 1590.19 45.5404 1590.19 48.4384ZM1590.27 49.4884C1590.52 50.7064 1591.24 51.7984 1592.2 52.5544L1600.6 47.4304C1600.35 46.2124 1599.68 45.1204 1598.71 44.3224L1590.27 49.4884ZM1599.34 43.9864C1600.27 44.7844 1600.94 45.8344 1601.19 47.0944L1605.64 44.3644C1605.18 43.2304 1604.51 42.2224 1603.75 41.2984L1599.34 43.9864ZM1607.22 48.4384C1607.22 42.0124 1612.43 36.8044 1618.86 36.8044C1620.75 36.8044 1622.51 37.2664 1624.11 38.0644V28.0684H1624.78V38.4424C1627.13 39.7444 1628.94 42.0964 1629.82 44.5324V28.0684H1630.49V59.5684H1629.82V52.3024C1628.98 54.6964 1627.13 57.1744 1624.78 58.4764V59.5684H1624.11V58.8124C1622.51 59.6104 1620.75 60.0724 1618.86 60.0724C1612.43 60.0724 1607.22 54.8644 1607.22 48.4384ZM1607.89 48.4384C1607.89 54.4864 1612.81 59.4004 1618.86 59.4004C1620.75 59.4004 1622.55 58.9384 1624.11 58.0984V51.2104C1623.1 53.0584 1621.12 54.3604 1618.86 54.3604C1615.58 54.3604 1612.93 51.7144 1612.93 48.4384C1612.93 45.1624 1615.58 42.5164 1618.86 42.5164C1621.12 42.5164 1623.1 43.8184 1624.11 45.7084V38.8204C1622.55 37.9804 1620.75 37.4764 1618.86 37.4764C1612.81 37.4764 1607.89 42.3904 1607.89 48.4384ZM1613.61 48.4384C1613.61 51.3364 1615.96 53.6884 1618.86 53.6884C1621.8 53.6884 1624.11 51.3364 1624.11 48.4384C1624.11 45.5404 1621.8 43.1884 1618.86 43.1884C1615.96 43.1884 1613.61 45.5404 1613.61 48.4384ZM1624.78 39.1984V57.6784C1627.59 55.9564 1629.82 52.4704 1629.82 48.4384C1629.82 44.4064 1627.59 40.9204 1624.78 39.1984ZM1654.76 37.3084V59.5684H1654.09V53.2264C1653.17 55.6204 1651.36 57.5944 1649.05 58.7284V59.5684H1648.38V59.0644C1647.2 59.5264 1645.94 59.7784 1644.6 59.7784C1639.01 59.7784 1634.44 55.2004 1634.44 49.6144V37.3084H1635.11V49.6144C1635.11 54.8224 1639.39 59.1064 1644.6 59.1064C1645.94 59.1064 1647.2 58.8124 1648.38 58.3084V51.9664C1647.58 53.2264 1646.2 54.0664 1644.6 54.0664C1642.16 54.0664 1640.15 52.0504 1640.15 49.6144V37.3084H1640.82V49.6144C1640.82 51.6724 1642.54 53.3944 1644.6 53.3944C1646.66 53.3944 1648.38 51.6724 1648.38 49.6144V37.3084H1649.05V57.9724C1652.03 56.3764 1654.09 53.2264 1654.09 49.6144V37.3084H1654.76ZM1664.22 37.3084L1667.87 42.8524L1671.57 37.3084H1672.41L1668.29 43.4824L1671.15 47.8084L1678.12 37.3084H1678.96L1671.57 48.4384L1678.96 59.5684H1678.12L1671.15 49.0684L1668.29 53.3944L1672.41 59.5684H1671.57L1667.92 54.0244L1664.22 59.5684H1663.38L1667.5 53.3944L1664.6 49.0684L1657.67 59.5684H1656.83L1664.18 48.4384L1656.83 37.3084H1657.67L1664.6 47.8084L1667.45 43.4824L1663.38 37.3084H1664.22ZM1667.87 52.7644L1670.73 48.4384L1667.87 44.1124L1665.02 48.4384L1667.87 52.7644ZM1703.93 53.6884C1708.76 53.6884 1712.75 49.6984 1712.75 44.8684C1712.75 40.0384 1708.76 36.0484 1703.93 36.0484C1699.1 36.0484 1695.11 40.0384 1695.11 44.8684C1695.11 49.6984 1699.1 53.6884 1703.93 53.6884ZM1712.2 49.4464L1715.69 53.3944C1717.41 51.0004 1718.46 48.0604 1718.46 44.8684C1718.46 36.8464 1711.95 30.3364 1703.93 30.3364C1695.9 30.3364 1689.39 36.8464 1689.39 44.8684C1689.39 52.8904 1695.9 59.4004 1703.93 59.4004C1706.45 59.4004 1708.84 58.7704 1710.94 57.5944L1707.5 53.6464C1706.4 54.1084 1705.19 54.3604 1703.93 54.3604C1698.76 54.3604 1694.43 50.0344 1694.43 44.8684C1694.43 39.7024 1698.76 35.3764 1703.93 35.3764C1709.09 35.3764 1713.42 39.7024 1713.42 44.8684C1713.42 46.5484 1712.96 48.1024 1712.2 49.4464ZM1708.13 53.3524L1711.49 57.2584C1712.79 56.5444 1714.26 55.2424 1715.27 53.9404L1711.82 50.0344C1710.98 51.3784 1709.72 52.5544 1708.13 53.3524ZM1717.7 56.7124L1715.73 54.4444C1714.59 55.8724 1713.12 57.0904 1711.95 57.7624L1713.88 60.0304L1713.38 60.4504L1711.36 58.0984C1709.18 59.3584 1706.61 60.0724 1703.93 60.0724C1695.57 60.0724 1688.72 53.2264 1688.72 44.8684C1688.72 36.5104 1695.57 29.6644 1703.93 29.6644C1712.28 29.6644 1719.13 36.5104 1719.13 44.8684C1719.13 48.2704 1718 51.3784 1716.11 53.8984L1718.21 56.2924L1717.7 56.7124ZM1742.37 37.3084V59.5684H1741.7V53.2264C1740.78 55.6204 1738.97 57.5944 1736.66 58.7284V59.5684H1735.99V59.0644C1734.81 59.5264 1733.55 59.7784 1732.21 59.7784C1726.62 59.7784 1722.05 55.2004 1722.05 49.6144V37.3084H1722.72V49.6144C1722.72 54.8224 1727 59.1064 1732.21 59.1064C1733.55 59.1064 1734.81 58.8124 1735.99 58.3084V51.9664C1735.19 53.2264 1733.81 54.0664 1732.21 54.0664C1729.77 54.0664 1727.76 52.0504 1727.76 49.6144V37.3084H1728.43V49.6144C1728.43 51.6724 1730.15 53.3944 1732.21 53.3944C1734.27 53.3944 1735.99 51.6724 1735.99 49.6144V37.3084H1736.66V57.9724C1739.64 56.3764 1741.7 53.2264 1741.7 49.6144V37.3084H1742.37ZM1746.66 59.5684V37.3084H1747.34V59.5684H1746.66ZM1753.05 37.3084V59.5684H1752.38V37.3084H1753.05ZM1752.38 35.1244V28.0684H1753.05V35.1244H1752.38ZM1747.34 28.0684V35.1244H1746.66V28.0684H1747.34ZM1762.91 58.8964H1773.75V59.5684H1755.44L1763.8 43.6924H1756.66V43.0204H1764.13L1766.82 37.9804H1756.66V37.3084H1774.3L1765.94 53.1844H1773.75V53.8564H1765.6L1762.91 58.8964ZM1765.18 53.1844L1770.18 43.6924H1764.55L1759.55 53.1844H1765.18ZM1764.85 53.8564H1759.22L1756.53 58.8964H1762.16L1764.85 53.8564ZM1770.52 43.0204L1773.2 37.9804H1767.58L1764.89 43.0204H1770.52ZM1799.44 59.5684H1798.77L1792.72 44.0704V59.5684H1792.05V36.5524H1787.01V59.5684H1786.34V30.1684H1795.7C1801.08 30.1684 1805.36 34.4524 1805.36 39.8284C1805.36 44.1124 1803.22 46.6324 1800.74 48.1864L1805.15 59.5684H1804.48L1800.2 48.5224C1798.98 49.2364 1797.26 49.8664 1795.83 50.2864L1799.44 59.5684ZM1798.52 42.4744L1800.49 47.5564C1802.76 46.1284 1804.69 43.7764 1804.69 39.8284C1804.69 34.7884 1800.74 30.8404 1795.7 30.8404H1792.72V35.8804H1795.7C1797.89 35.8804 1799.65 37.6444 1799.65 39.8284C1799.65 40.8364 1799.27 41.7184 1798.52 42.4744ZM1792.72 36.5524V44.0704L1794.32 43.7344C1797.59 43.0204 1798.98 41.6344 1798.98 39.8284C1798.98 37.9804 1797.55 36.5524 1795.7 36.5524H1792.72ZM1787.01 30.8404V35.8804H1792.05V30.8404H1787.01ZM1799.95 47.8924L1798.01 42.9364C1796.75 43.9024 1795.28 44.2384 1793.65 44.5744L1795.58 49.6144C1796.84 49.2784 1798.9 48.5224 1799.95 47.8924Z" fill="white"/>
</g>
<defs>
<clipPath id="clip0_1322_3801">
<rect width="1803" height="343" fill="white"/>
</clipPath>
</defs>
</svg>
